<svg width="178" height="46" viewBox="0 0 178 46" fill="none" xmlns="http://www.w3.org/2000/svg">
<path d="M49.1 0.0999993L39.35 35H31.1L24.55 10.15L17.7 35L9.5 35.05L0.1 0.0999993H7.6L13.75 27.2L20.85 0.0999993H28.65L35.35 27.05L41.55 0.0999993H49.1Z" fill="#3F3D56"/>
<path d="M51.5407 23.84C51.5407 21.6 51.9807 19.6133 52.8607 17.88C53.7674 16.1467 54.9807 14.8133 56.5007 13.88C58.0474 12.9467 59.7674 12.48 61.6607 12.48C63.314 12.48 64.754 12.8133 65.9807 13.48C67.234 14.1467 68.234 14.9867 68.9807 16V12.84H74.6207V35H68.9807V31.76C68.2607 32.8 67.2607 33.6667 65.9807 34.36C64.7274 35.0267 63.274 35.36 61.6207 35.36C59.754 35.36 58.0474 34.88 56.5007 33.92C54.9807 32.96 53.7674 31.6133 52.8607 29.88C51.9807 28.12 51.5407 26.1067 51.5407 23.84ZM68.9807 23.92C68.9807 22.56 68.714 21.4 68.1807 20.44C67.6474 19.4533 66.9274 18.7067 66.0207 18.2C65.114 17.6667 64.1407 17.4 63.1007 17.4C62.0607 17.4 61.1007 17.6533 60.2207 18.16C59.3407 18.6667 58.6207 19.4133 58.0607 20.4C57.5274 21.36 57.2607 22.5067 57.2607 23.84C57.2607 25.1733 57.5274 26.3467 58.0607 27.36C58.6207 28.3467 59.3407 29.1067 60.2207 29.64C61.1274 30.1733 62.0874 30.44 63.1007 30.44C64.1407 30.44 65.114 30.1867 66.0207 29.68C66.9274 29.1467 67.6474 28.4 68.1807 27.44C68.714 26.4533 68.9807 25.28 68.9807 23.92ZM92.3701 12.52C95.0101 12.52 97.1434 13.36 98.7701 15.04C100.397 16.6933 101.21 19.0133 101.21 22V35H95.6101V22.76C95.6101 21 95.1701 19.6533 94.2901 18.72C93.4101 17.76 92.2101 17.28 90.6901 17.28C89.1434 17.28 87.9167 17.76 87.0101 18.72C86.1301 19.6533 85.6901 21 85.6901 22.76V35H80.0901V12.84H85.6901V15.6C86.4367 14.64 87.3834 13.8933 88.5301 13.36C89.7034 12.8 90.9834 12.52 92.3701 12.52ZM115.215 12.48C116.869 12.48 118.322 12.8133 119.575 13.48C120.829 14.12 121.815 14.96 122.535 16V12.84H128.175V35.16C128.175 37.2133 127.762 39.04 126.935 40.64C126.109 42.2667 124.869 43.5467 123.215 44.48C121.562 45.44 119.562 45.92 117.215 45.92C114.069 45.92 111.482 45.1867 109.455 43.72C107.455 42.2533 106.322 40.2533 106.055 37.72H111.615C111.909 38.7333 112.535 39.5333 113.495 40.12C114.482 40.7333 115.669 41.04 117.055 41.04C118.682 41.04 120.002 40.5467 121.015 39.56C122.029 38.6 122.535 37.1333 122.535 35.16V31.72C121.815 32.76 120.815 33.6267 119.535 34.32C118.282 35.0133 116.842 35.36 115.215 35.36C113.349 35.36 111.642 34.88 110.095 33.92C108.549 32.96 107.322 31.6133 106.415 29.88C105.535 28.12 105.095 26.1067 105.095 23.84C105.095 21.6 105.535 19.6133 106.415 17.88C107.322 16.1467 108.535 14.8133 110.055 13.88C111.602 12.9467 113.322 12.48 115.215 12.48ZM122.535 23.92C122.535 22.56 122.269 21.4 121.735 20.44C121.202 19.4533 120.482 18.7067 119.575 18.2C118.669 17.6667 117.695 17.4 116.655 17.4C115.615 17.4 114.655 17.6533 113.775 18.16C112.895 18.6667 112.175 19.4133 111.615 20.4C111.082 21.36 110.815 22.5067 110.815 23.84C110.815 25.1733 111.082 26.3467 111.615 27.36C112.175 28.3467 112.895 29.1067 113.775 29.64C114.682 30.1733 115.642 30.44 116.655 30.44C117.695 30.44 118.669 30.1867 119.575 29.68C120.482 29.1467 121.202 28.4 121.735 27.44C122.269 26.4533 122.535 25.28 122.535 23.92ZM146.765 35L139.245 25.56V35H133.645V5.4H139.245V22.24L146.685 12.84H153.965L144.205 23.96L154.045 35H146.765ZM177.924 12.84V35H172.284V32.2C171.564 33.16 170.617 33.92 169.444 34.48C168.297 35.0133 167.044 35.28 165.684 35.28C163.951 35.28 162.417 34.92 161.084 34.2C159.751 33.4533 158.697 32.3733 157.924 30.96C157.177 29.52 156.804 27.8133 156.804 25.84V12.84H162.404V25.04C162.404 26.8 162.844 28.16 163.724 29.12C164.604 30.0533 165.804 30.52 167.324 30.52C168.871 30.52 170.084 30.0533 170.964 29.12C171.844 28.16 172.284 26.8 172.284 25.04V12.84H177.924Z" fill="#6C63FF"/>
</svg>
